<svg width="43" height="43" viewBox="0 0 43 43" fill="none" xmlns="http://www.w3.org/2000/svg">
<rect width="43" height="43" rx="21.5" fill="url(#paint0_angular_344_117)"/>
<rect width="43" height="43" rx="21.5" fill="url(#paint1_radial_344_117)"/>
<g clip-path="url(#clip0_344_117)">
<path d="M22 11C19.0149 11 18.6395 11.0138 17.4666 11.066C16.2938 11.121 15.4949 11.3052 14.795 11.5775C14.0609 11.8536 13.3959 12.2868 12.8466 12.8466C12.2871 13.3962 11.854 14.0611 11.5775 14.795C11.3052 15.4935 11.1196 16.2937 11.066 17.4625C11.0138 18.6381 11 19.0121 11 22.0014C11 24.9879 11.0138 25.3619 11.066 26.5348C11.121 27.7063 11.3052 28.5051 11.5775 29.205C11.8594 29.9282 12.2348 30.5415 12.8466 31.1534C13.4571 31.7652 14.0704 32.142 14.7936 32.4225C15.4949 32.6947 16.2924 32.8804 17.4639 32.934C18.6381 32.9862 19.0121 33 22 33C24.9879 33 25.3605 32.9862 26.5348 32.934C27.7049 32.879 28.5065 32.6947 29.2064 32.4225C29.94 32.1462 30.6045 31.7131 31.1534 31.1534C31.7652 30.5415 32.1406 29.9282 32.4225 29.205C32.6934 28.5051 32.879 27.7063 32.934 26.5348C32.9862 25.3619 33 24.9879 33 22C33 19.0121 32.9862 18.6381 32.934 17.4639C32.879 16.2938 32.6934 15.4935 32.4225 14.795C32.146 14.0611 31.7129 13.3962 31.1534 12.8466C30.6042 12.2866 29.9392 11.8534 29.205 11.5775C28.5037 11.3052 27.7035 11.1196 26.5334 11.066C25.3591 11.0138 24.9865 11 21.9973 11H22.0014H22ZM21.0141 12.9828H22.0014C24.9384 12.9828 25.2862 12.9924 26.4454 13.046C27.5179 13.0941 28.1009 13.2743 28.4886 13.4241C29.0015 13.6235 29.3686 13.8627 29.7536 14.2477C30.1386 14.6327 30.3765 14.9985 30.5759 15.5128C30.7271 15.8991 30.9059 16.4821 30.954 17.5546C31.0076 18.7138 31.0186 19.0616 31.0186 21.9973C31.0186 24.9329 31.0076 25.2821 30.954 26.4412C30.9059 27.5137 30.7258 28.0954 30.5759 28.4831C30.3995 28.9607 30.118 29.3926 29.7522 29.7467C29.3672 30.1317 29.0015 30.3696 28.4873 30.569C28.1023 30.7203 27.5192 30.899 26.4454 30.9485C25.2862 31.0008 24.9384 31.0131 22.0014 31.0131C19.0644 31.0131 18.7151 31.0008 17.556 30.9485C16.4835 30.899 15.9019 30.7203 15.5141 30.569C15.0363 30.3929 14.604 30.1119 14.2491 29.7467C13.883 29.392 13.6011 28.9598 13.4241 28.4817C13.2743 28.0954 13.0941 27.5124 13.046 26.4399C12.9938 25.2808 12.9828 24.9329 12.9828 21.9945C12.9828 19.0575 12.9938 18.711 13.046 17.5519C13.0955 16.4794 13.2743 15.8964 13.4255 15.5086C13.6249 14.9958 13.8641 14.6286 14.2491 14.2436C14.6341 13.8586 14.9999 13.6208 15.5141 13.4214C15.9019 13.2701 16.4835 13.0914 17.556 13.0419C18.5708 12.9951 18.964 12.9814 21.0141 12.98V12.9828ZM27.8726 14.8087C27.6993 14.8087 27.5276 14.8429 27.3675 14.9092C27.2073 14.9756 27.0618 15.0728 26.9392 15.1954C26.8167 15.3179 26.7194 15.4635 26.6531 15.6236C26.5868 15.7838 26.5526 15.9554 26.5526 16.1288C26.5526 16.3021 26.5868 16.4737 26.6531 16.6339C26.7194 16.794 26.8167 16.9396 26.9392 17.0621C27.0618 17.1847 27.2073 17.2819 27.3675 17.3483C27.5276 17.4146 27.6993 17.4488 27.8726 17.4488C28.2227 17.4488 28.5585 17.3097 28.806 17.0621C29.0536 16.8146 29.1926 16.4788 29.1926 16.1288C29.1926 15.7787 29.0536 15.4429 28.806 15.1954C28.5585 14.9478 28.2227 14.8087 27.8726 14.8087ZM22.0014 16.3515C21.2521 16.3398 20.508 16.4773 19.8123 16.7559C19.1167 17.0346 18.4835 17.4488 17.9495 17.9746C17.4155 18.5003 16.9914 19.127 16.7019 19.8182C16.4124 20.5094 16.2634 21.2513 16.2634 22.0007C16.2634 22.7501 16.4124 23.4919 16.7019 24.1831C16.9914 24.8743 17.4155 25.5011 17.9495 26.0268C18.4835 26.5525 19.1167 26.9668 19.8123 27.2454C20.508 27.5241 21.2521 27.6616 22.0014 27.6499C23.4844 27.6267 24.8988 27.0214 25.9393 25.9645C26.9799 24.9076 27.5631 23.4839 27.5631 22.0007C27.5631 20.5175 26.9799 19.0938 25.9393 18.0369C24.8988 16.98 23.4844 16.3746 22.0014 16.3515ZM22.0014 18.3329C22.974 18.3329 23.9067 18.7192 24.5944 19.407C25.2821 20.0947 25.6685 21.0274 25.6685 22C25.6685 22.9726 25.2821 23.9053 24.5944 24.593C23.9067 25.2808 22.974 25.6671 22.0014 25.6671C21.0288 25.6671 20.096 25.2808 19.4083 24.593C18.7206 23.9053 18.3343 22.9726 18.3343 22C18.3343 21.0274 18.7206 20.0947 19.4083 19.407C20.096 18.7192 21.0288 18.3329 22.0014 18.3329Z" fill="white"/>
</g>
<defs>
<radialGradient id="paint0_angular_344_117" cx="0" cy="0" r="1" gradientUnits="userSpaceOnUse" gradientTransform="translate(21.5 21.5) rotate(90) scale(21.5)">
<stop stop-color="#FFC603"/>
<stop offset="0.15625" stop-color="#FC590D"/>
<stop offset="0.331902" stop-color="#FE113F"/>
<stop offset="0.463542" stop-color="#FF02D6"/>
<stop offset="0.598958" stop-color="#7B0DF1"/>
<stop offset="0.71875" stop-color="#FC05DE"/>
<stop offset="0.848958" stop-color="#F83247"/>
<stop offset="1" stop-color="#FFC603"/>
</radialGradient>
<radialGradient id="paint1_radial_344_117" cx="0" cy="0" r="1" gradientUnits="userSpaceOnUse" gradientTransform="translate(21.5 21.5) rotate(90) scale(21.5)">
<stop stop-color="#FF0D4E"/>
<stop offset="1" stop-color="white" stop-opacity="0"/>
</radialGradient>
<clipPath id="clip0_344_117">
<rect width="22" height="22" fill="white" transform="translate(11 11)"/>
</clipPath>
</defs>
</svg>
